<svg version="1.1" xmlns="http://www.w3.org/2000/svg" viewBox="0 0 393.50264366819783 688.5206869633105" width="787.0052873363957" height="1377.041373926621">
  <!-- svg-source:excalidraw -->
  
  <defs>
    <style class="style-fonts">
      @font-face {
        font-family: "Virgil";
        src: url("https://excalidraw.com/Virgil.woff2");
      }
      @font-face {
        font-family: "Cascadia";
        src: url("https://excalidraw.com/Cascadia.woff2");
      }
    </style>
  </defs>
  <rect x="0" y="0" width="393.50264366819783" height="688.5206869633105" fill="#ffffff"></rect><g stroke-linecap="round" transform="translate(10.11801407578605 10) rotate(0 186.6260481502302 334.26034348165524)"><path d="M-1.2 -0.28 C107.79 1.21, 214.68 1.82, 373.93 -1.08 M0.19 -0.17 C128.29 2.06, 256.77 1.42, 372.96 0.23 M372.86 0.23 C374.17 163.02, 374.03 326.69, 373.02 669.21 M373.51 -0.4 C376.19 193.56, 376.26 387.02, 373.46 668.63 M373.24 668.76 C275.32 669.04, 178.2 668.06, -0.93 669.06 M373.42 669.02 C276.78 668.16, 179.83 668.32, 0.47 668.3 M0.46 667.78 C-0.05 491.19, -0.51 315.26, -0.17 -0.49 M-0.37 668.26 C-1.36 534.3, -1.38 399.67, -0.35 -0.31" stroke="#000000" stroke-width="2" fill="none"></path></g><g stroke-linecap="round" transform="translate(10 10.044579443241673) rotate(0 186.75132183409892 14.457831325301186)"><path d="M-0.16 0.1 C92.65 1.23, 188.4 -0.56, 374.03 0.32 M0.16 0.54 C87.62 0.51, 173.91 0.85, 373.17 0.09 M374.78 -1.73 C374.28 8.27, 372.78 21.98, 373.3 30.89 M374.24 -0.15 C374.6 9.01, 374.2 19.37, 373.11 28.37 M373.07 29.43 C261.2 28.89, 148.07 29.91, -0.5 29.28 M373.62 28.79 C265.19 30.82, 157.82 30.56, -0.22 29.09 M1.76 27.25 C0.46 17.69, -0.58 4.92, -1.98 0.77 M-0.84 29.7 C-0.6 22.37, -0.61 13.97, 0.02 0.22" stroke="#000000" stroke-width="2" fill="none"></path></g><g transform="translate(173.3436145188207 14.721835228971031) rotate(0 19.031982421875 10.5)"><text x="19.031982421875" y="0" font-family="Virgil, Segoe UI Emoji" font-size="16px" fill="#000000" text-anchor="middle" style="white-space: pre;" direction="ltr" dominant-baseline="text-before-edge">10:47</text></g><g stroke-linecap="round" transform="translate(338.2072008486102 17.02435569109184) rotate(0 16.96428571428578 7.738095238095411)"><path d="M1.11 -1.77 C11.32 0.33, 19.58 0.42, 33.39 0.52 M-0.47 0.38 C12.62 0.21, 26.84 -0.43, 34.22 0.64 M33.48 1.34 C33.84 4.83, 34.47 7.59, 32.39 16.61 M34.32 0.2 C33.77 3.98, 34.07 8.8, 34.08 15.2 M32.4 16.36 C21.51 15.94, 10.52 15.89, 1.63 15.87 M34.69 15.11 C24.07 15.78, 15.87 16.08, -0.93 16.36 M-0.32 14.54 C-1.58 12.72, -0.9 7.32, -0.99 -1.3 M-0.68 14.87 C0.15 9.79, 0.48 4.3, -0.24 0.45" stroke="#000000" stroke-width="2" fill="none"></path></g><g stroke-linecap="round" transform="translate(339.69529608670564 21.78626045299461) rotate(0 10.416666666666742 4.16666666666697)"><path d="M-0.81 0.64 L19.79 1.91 L22.17 9.54 L-1.84 8.55" stroke="none" stroke-width="0" fill="#000"></path><path d="M0.87 0.52 C6.12 0.8, 14.37 0.71, 22.6 1.71 M-0.55 0.15 C6.39 -0.56, 12.06 0.56, 19.97 0.46 M20.75 0.82 C21.06 2.26, 19.98 4.06, 20.7 9.09 M20.67 -0.23 C20.88 2.05, 20.96 3.96, 21.01 8.32 M20.01 8.93 C15.18 8.97, 11.59 8.82, -0.4 7.55 M20.48 8.62 C15.37 8.84, 7.11 9.14, -0.83 8.65 M-0.82 8.65 C-0.44 4.98, -0.52 2.49, 0.65 -0.73 M0.01 8.42 C0.26 5.68, -0.05 2.69, 0.34 -0.16" stroke="transparent" stroke-width="2" fill="none"></path></g><g stroke-linecap="round" transform="translate(19.919046443473917 273.6887797609521) rotate(0 66.57937622070312 166.3251953125)"><path d="M32 0 M32 0 C54.12 -1.03, 80.37 -1.1, 101.16 0 M32 0 C56.47 0.76, 81.34 1.23, 101.16 0 M101.16 0 C121.88 1.17, 134.81 9.92, 133.16 32 M101.16 0 C121.56 0.74, 131.96 12.87, 133.16 32 M133.16 32 C134.6 129.51, 133.03 228.8, 133.16 300.65 M133.16 32 C131.88 86.2, 133 140.24, 133.16 300.65 M133.16 300.65 C131.33 322.59, 122.63 333.21, 101.16 332.65 M133.16 300.65 C131.94 319.79, 121.74 333.77, 101.16 332.65 M101.16 332.65 C76.63 333.84, 49.59 331.1, 32 332.65 M101.16 332.65 C80.58 331.94, 61.12 332.41, 32 332.65 M32 332.65 C9.61 332.35, -0.45 321.85, 0 300.65 M32 332.65 C11.23 333.74, -1.89 321.87, 0 300.65 M0 300.65 C1.62 231.88, 1.54 160.95, 0 32 M0 300.65 C1.03 244.7, 1.55 189.88, 0 32 M0 32 C-1.39 11.31, 10.76 1.05, 32 0 M0 32 C1.58 11.56, 11.62 -0.04, 32 0" stroke="#000000" stroke-width="1" fill="none"></path></g><g transform="translate(45.85447124816142 322.46774094259274) rotate(0 38.699951171875 125)"><text x="0" y="0" font-family="Virgil, Segoe UI Emoji" font-size="20px" fill="#000000" text-anchor="start" style="white-space: pre;" direction="ltr" dominant-baseline="text-before-edge">Pullups</text><text x="0" y="25" font-family="Virgil, Segoe UI Emoji" font-size="20px" fill="#000000" text-anchor="start" style="white-space: pre;" direction="ltr" dominant-baseline="text-before-edge"></text><text x="0" y="50" font-family="Virgil, Segoe UI Emoji" font-size="20px" fill="#000000" text-anchor="start" style="white-space: pre;" direction="ltr" dominant-baseline="text-before-edge">Squats</text><text x="0" y="75" font-family="Virgil, Segoe UI Emoji" font-size="20px" fill="#000000" text-anchor="start" style="white-space: pre;" direction="ltr" dominant-baseline="text-before-edge"></text><text x="0" y="100" font-family="Virgil, Segoe UI Emoji" font-size="20px" fill="#000000" text-anchor="start" style="white-space: pre;" direction="ltr" dominant-baseline="text-before-edge">Pushups</text><text x="0" y="125" font-family="Virgil, Segoe UI Emoji" font-size="20px" fill="#000000" text-anchor="start" style="white-space: pre;" direction="ltr" dominant-baseline="text-before-edge"></text><text x="0" y="150" font-family="Virgil, Segoe UI Emoji" font-size="20px" fill="#000000" text-anchor="start" style="white-space: pre;" direction="ltr" dominant-baseline="text-before-edge">Situps</text><text x="0" y="175" font-family="Virgil, Segoe UI Emoji" font-size="20px" fill="#000000" text-anchor="start" style="white-space: pre;" direction="ltr" dominant-baseline="text-before-edge"></text><text x="0" y="200" font-family="Virgil, Segoe UI Emoji" font-size="20px" fill="#000000" text-anchor="start" style="white-space: pre;" direction="ltr" dominant-baseline="text-before-edge">Run</text><text x="0" y="225" font-family="Virgil, Segoe UI Emoji" font-size="20px" fill="#000000" text-anchor="start" style="white-space: pre;" direction="ltr" dominant-baseline="text-before-edge"></text></g><g stroke-linecap="round" transform="translate(30.257547420036417 49.63947861349118) rotate(0 167.044677734375 24.757118225097656)"><path d="M12.38 0 M12.38 0 C128.38 -0.19, 243.82 -1.84, 321.71 0 M12.38 0 C129.57 1.59, 246.21 1.04, 321.71 0 M321.71 0 C329.57 1.33, 334.88 3.37, 334.09 12.38 M321.71 0 C330.04 1.28, 335.24 4.49, 334.09 12.38 M334.09 12.38 C333.78 21.69, 333.73 30.63, 334.09 37.14 M334.09 12.38 C333.57 19.98, 333.55 28.37, 334.09 37.14 M334.09 37.14 C335.21 44.95, 329.73 50.16, 321.71 49.51 M334.09 37.14 C333.83 45.47, 329.86 48.38, 321.71 49.51 M321.71 49.51 C253.15 47.56, 181.46 48.66, 12.38 49.51 M321.71 49.51 C251.32 51.01, 181.87 51.78, 12.38 49.51 M12.38 49.51 C4.95 50.2, -1.73 44.22, 0 37.14 M12.38 49.51 C5.77 51.37, -2.03 45.46, 0 37.14 M0 37.14 C-0.88 33.44, -0.97 28.41, 0 12.38 M0 37.14 C0.11 29.19, -0.77 19.03, 0 12.38 M0 12.38 C1.91 4.05, 5.32 -1.69, 12.38 0 M0 12.38 C1.82 5.95, 2.07 0.68, 12.38 0" stroke="#000000" stroke-width="1" fill="none"></path></g><g stroke-linecap="round" transform="translate(158.33280376769267 230.7022990480615) rotate(0 52.499176025390625 22.128128051757812)"><path d="M11.06 0 M11.06 0 C28.11 -0.18, 44.27 -2.38, 93.93 0 M11.06 0 C43.73 0.11, 76.04 0.77, 93.93 0 M93.93 0 C102.41 1.69, 105.14 4.61, 105 11.06 M93.93 0 C101.28 -2.25, 106.59 3.98, 105 11.06 M105 11.06 C106.98 18.5, 104.08 26.43, 105 33.19 M105 11.06 C104.14 18.74, 104.63 26.05, 105 33.19 M105 33.19 C105.18 40.85, 103.15 46.01, 93.93 44.26 M105 33.19 C103.42 42.21, 101.9 44.63, 93.93 44.26 M93.93 44.26 C72.24 44.4, 50.55 43.4, 11.06 44.26 M93.93 44.26 C74.41 43.77, 54.15 43.12, 11.06 44.26 M11.06 44.26 C4.27 44.31, 1.89 41.51, 0 33.19 M11.06 44.26 C3.38 42.3, -0.86 41.65, 0 33.19 M0 33.19 C-1.28 25.98, -1.4 16.94, 0 11.06 M0 33.19 C0.2 24.83, -0.6 16.52, 0 11.06 M0 11.06 C0.07 2.32, 5.43 -0.55, 11.06 0 M0 11.06 C-1.83 2.45, 4.16 -0.35, 11.06 0" stroke="#000000" stroke-width="1" fill="none"></path></g><g stroke-linecap="round" transform="translate(274.8097935137864 230.2816447511865) rotate(0 49 23)"><path d="M11.5 0 M11.5 0 C30.76 -0.98, 49.35 0.23, 86.5 0 M11.5 0 C32.49 -0.18, 52.23 0.04, 86.5 0 M86.5 0 C92.84 0.36, 98.02 3.2, 98 11.5 M86.5 0 C92.57 1.72, 96.08 5.41, 98 11.5 M98 11.5 C98.9 15.5, 97.5 22.64, 98 34.5 M98 11.5 C97.67 19.65, 98.37 29.38, 98 34.5 M98 34.5 C96.44 42.02, 92.9 44.08, 86.5 46 M98 34.5 C95.86 40.32, 94.6 46.7, 86.5 46 M86.5 46 C69.2 45.16, 52.55 46.51, 11.5 46 M86.5 46 C58.37 46.37, 28.61 45.34, 11.5 46 M11.5 46 C2.87 47.7, -1.36 41.23, 0 34.5 M11.5 46 C2.89 46.6, -2.1 43.44, 0 34.5 M0 34.5 C-0.44 27.59, 1.21 18.77, 0 11.5 M0 34.5 C0.98 25.65, 0.7 17.95, 0 11.5 M0 11.5 C-0.84 3.13, 3.59 -0.63, 11.5 0 M0 11.5 C1.22 2.28, 4.28 1.51, 11.5 0" stroke="#000000" stroke-width="1" fill="none"></path></g><g transform="translate(280.32983593322 240.7816447511865) rotate(0 43.479957580566406 12.5)"><text x="43.479957580566406" y="0" font-family="Virgil, Segoe UI Emoji" font-size="20px" fill="#000000" text-anchor="middle" style="white-space: pre;" direction="ltr" dominant-baseline="text-before-edge">subtract</text></g><g transform="translate(179.02164654113017 61.446897436733366) rotate(0 24.35997772216797 12.5)"><text x="0" y="0" font-family="Virgil, Segoe UI Emoji" font-size="20px" fill="#000000" text-anchor="start" style="white-space: pre;" direction="ltr" dominant-baseline="text-before-edge">Mode</text></g><g transform="translate(169.21274761534892 240.45751755392087) rotate(0 43.97996520996094 12.5)"><text x="0" y="0" font-family="Virgil, Segoe UI Emoji" font-size="20px" fill="#000000" text-anchor="start" style="white-space: pre;" direction="ltr" dominant-baseline="text-before-edge">Remaining</text></g><g transform="translate(45.79660992003642 132.41625778829587) rotate(0 32.499977111816406 12.5)"><text x="0" y="0" font-family="Virgil, Segoe UI Emoji" font-size="20px" fill="#2b8a3e" text-anchor="start" style="white-space: pre;" direction="ltr" dominant-baseline="text-before-edge">Level 1</text></g><g transform="translate(168.10709575988017 133.77612106954587) rotate(0 36.90997314453125 12.5)"><text x="0" y="0" font-family="Virgil, Segoe UI Emoji" font-size="20px" fill="#e67700" text-anchor="start" style="white-space: pre;" direction="ltr" dominant-baseline="text-before-edge">Level 2</text></g><g transform="translate(292.1901646075364 131.09972946798337) rotate(0 36.5999755859375 12.5)"><text x="0" y="0" font-family="Virgil, Segoe UI Emoji" font-size="20px" fill="#5f3dc4" text-anchor="start" style="white-space: pre;" direction="ltr" dominant-baseline="text-before-edge">Level 3</text></g><g stroke-linecap="round" transform="translate(159.69150738097392 279.37951462423337) rotate(0 55.47479248046875 161.9150390625)"><path d="M27.74 0 M27.74 0 C48.52 -0.24, 69.5 -0.48, 83.21 0 M27.74 0 C39.45 -0.51, 51.58 0.24, 83.21 0 M83.21 0 C102.38 -0.62, 109.9 10.86, 110.95 27.74 M83.21 0 C103.15 -0.61, 113.11 8.36, 110.95 27.74 M110.95 27.74 C110.58 88.19, 111.08 148.21, 110.95 296.09 M110.95 27.74 C109.85 123.69, 110.26 219.06, 110.95 296.09 M110.95 296.09 C111.44 315.21, 100.83 322.92, 83.21 323.83 M110.95 296.09 C113.04 314.6, 100.13 322.52, 83.21 323.83 M83.21 323.83 C65.44 324.09, 44.69 324.97, 27.74 323.83 M83.21 323.83 C69.93 323, 55.08 323.07, 27.74 323.83 M27.74 323.83 C11.01 324.23, 0.53 316.21, 0 296.09 M27.74 323.83 C8.42 322.92, 2.21 314.35, 0 296.09 M0 296.09 C-1.4 218.31, -2.13 140.7, 0 27.74 M0 296.09 C1.24 219.73, 1.07 144.82, 0 27.74 M0 27.74 C0.34 10.21, 9.54 -0.84, 27.74 0 M0 27.74 C-2.17 10.02, 10.99 1.56, 27.74 0" stroke="#2b8a3e" stroke-width="1" fill="none"></path></g><g stroke-linecap="round" transform="translate(279.20218853331767 280.23254196798337) rotate(0 46.141326904296875 162.02093505859375)"><path d="M23.07 0 M23.07 0 C39.5 -0.14, 51.02 0.48, 69.21 0 M23.07 0 C34.71 0.3, 47.92 0.37, 69.21 0 M69.21 0 C82.69 -1.32, 93.93 8.45, 92.28 23.07 M69.21 0 C86.74 1.36, 92.15 8.57, 92.28 23.07 M92.28 23.07 C95.71 113.23, 94.51 200.54, 92.28 300.97 M92.28 23.07 C89.8 102.58, 90.48 181.06, 92.28 300.97 M92.28 300.97 C93.45 317.84, 83.05 324.16, 69.21 324.04 M92.28 300.97 C90.99 315.53, 85.45 325.92, 69.21 324.04 M69.21 324.04 C57.06 325.8, 43.41 325.99, 23.07 324.04 M69.21 324.04 C51.82 323.3, 31.84 322.95, 23.07 324.04 M23.07 324.04 C6.46 322.12, 0.2 315.43, 0 300.97 M23.07 324.04 C5.72 324.89, -1.68 318.1, 0 300.97 M0 300.97 C-1.83 245.62, -0.88 187.52, 0 23.07 M0 300.97 C1.14 199.87, 1.54 99.47, 0 23.07 M0 23.07 C-0.22 8.65, 7.14 1.45, 23.07 0 M0 23.07 C-1.89 6.17, 6.78 1.04, 23.07 0" stroke="#2b8a3e" stroke-width="1" fill="none"></path></g><g transform="translate(192.95658306456767 324.3634318605615) rotate(0 20.879989624023438 112.5)"><text x="0" y="0" font-family="Virgil, Segoe UI Emoji" font-size="20px" fill="#2b8a3e" text-anchor="start" style="white-space: pre;" direction="ltr" dominant-baseline="text-before-edge">50</text><text x="0" y="25" font-family="Virgil, Segoe UI Emoji" font-size="20px" fill="#2b8a3e" text-anchor="start" style="white-space: pre;" direction="ltr" dominant-baseline="text-before-edge"></text><text x="0" y="50" font-family="Virgil, Segoe UI Emoji" font-size="20px" fill="#2b8a3e" text-anchor="start" style="white-space: pre;" direction="ltr" dominant-baseline="text-before-edge">100</text><text x="0" y="75" font-family="Virgil, Segoe UI Emoji" font-size="20px" fill="#2b8a3e" text-anchor="start" style="white-space: pre;" direction="ltr" dominant-baseline="text-before-edge"></text><text x="0" y="100" font-family="Virgil, Segoe UI Emoji" font-size="20px" fill="#2b8a3e" text-anchor="start" style="white-space: pre;" direction="ltr" dominant-baseline="text-before-edge">100</text><text x="0" y="125" font-family="Virgil, Segoe UI Emoji" font-size="20px" fill="#2b8a3e" text-anchor="start" style="white-space: pre;" direction="ltr" dominant-baseline="text-before-edge"></text><text x="0" y="150" font-family="Virgil, Segoe UI Emoji" font-size="20px" fill="#2b8a3e" text-anchor="start" style="white-space: pre;" direction="ltr" dominant-baseline="text-before-edge">200</text><text x="0" y="175" font-family="Virgil, Segoe UI Emoji" font-size="20px" fill="#2b8a3e" text-anchor="start" style="white-space: pre;" direction="ltr" dominant-baseline="text-before-edge"></text><text x="0" y="200" font-family="Virgil, Segoe UI Emoji" font-size="20px" fill="#2b8a3e" text-anchor="start" style="white-space: pre;" direction="ltr" dominant-baseline="text-before-edge">5k</text></g><g transform="translate(312.6075230059739 329.08679001485837) rotate(0 13.999992370605469 112.5)"><text x="0" y="0" font-family="Virgil, Segoe UI Emoji" font-size="20px" fill="#2b8a3e" text-anchor="start" style="white-space: pre;" direction="ltr" dominant-baseline="text-before-edge">5</text><text x="0" y="25" font-family="Virgil, Segoe UI Emoji" font-size="20px" fill="#2b8a3e" text-anchor="start" style="white-space: pre;" direction="ltr" dominant-baseline="text-before-edge"></text><text x="0" y="50" font-family="Virgil, Segoe UI Emoji" font-size="20px" fill="#2b8a3e" text-anchor="start" style="white-space: pre;" direction="ltr" dominant-baseline="text-before-edge">10</text><text x="0" y="75" font-family="Virgil, Segoe UI Emoji" font-size="20px" fill="#2b8a3e" text-anchor="start" style="white-space: pre;" direction="ltr" dominant-baseline="text-before-edge"></text><text x="0" y="100" font-family="Virgil, Segoe UI Emoji" font-size="20px" fill="#2b8a3e" text-anchor="start" style="white-space: pre;" direction="ltr" dominant-baseline="text-before-edge">10</text><text x="0" y="125" font-family="Virgil, Segoe UI Emoji" font-size="20px" fill="#2b8a3e" text-anchor="start" style="white-space: pre;" direction="ltr" dominant-baseline="text-before-edge"></text><text x="0" y="150" font-family="Virgil, Segoe UI Emoji" font-size="20px" fill="#2b8a3e" text-anchor="start" style="white-space: pre;" direction="ltr" dominant-baseline="text-before-edge">20</text><text x="0" y="175" font-family="Virgil, Segoe UI Emoji" font-size="20px" fill="#2b8a3e" text-anchor="start" style="white-space: pre;" direction="ltr" dominant-baseline="text-before-edge"></text><text x="0" y="200" font-family="Virgil, Segoe UI Emoji" font-size="20px" fill="#2b8a3e" text-anchor="start" style="white-space: pre;" direction="ltr" dominant-baseline="text-before-edge">5k</text></g><g transform="translate(49.25834087706767 160.52789108907712) rotate(0 22.949989318847656 12.5)"><text x="0" y="0" font-family="Virgil, Segoe UI Emoji" font-size="20px" fill="#2b8a3e" text-anchor="start" style="white-space: pre;" direction="ltr" dominant-baseline="text-before-edge">x 1.0</text></g><g transform="translate(180.03849224425517 162.73772995626462) rotate(0 22.249984741210938 12.5)"><text x="0" y="0" font-family="Virgil, Segoe UI Emoji" font-size="20px" fill="#e67700" text-anchor="start" style="white-space: pre;" direction="ltr" dominant-baseline="text-before-edge">x 1.5</text></g><g transform="translate(298.27604107238017 166.688505102749) rotate(0 27.3599853515625 12.5)"><text x="0" y="0" font-family="Virgil, Segoe UI Emoji" font-size="20px" fill="#5f3dc4" text-anchor="start" style="white-space: pre;" direction="ltr" dominant-baseline="text-before-edge">x 2.0</text></g><g stroke-linecap="round" transform="translate(32.89219097472392 122.51840012228024) rotate(0 43.350860595703125 33.272918701171875)"><path d="M16.64 0 M16.64 0 C37.64 -1.53, 56.25 -0.6, 70.07 0 M16.64 0 C35.7 0.15, 56.98 0.09, 70.07 0 M70.07 0 C82.73 1.16, 85.57 7.04, 86.7 16.64 M70.07 0 C82.8 -0.15, 85.31 4.09, 86.7 16.64 M86.7 16.64 C87.98 26.82, 87.42 37.73, 86.7 49.91 M86.7 16.64 C86.59 27.91, 87.85 38.65, 86.7 49.91 M86.7 49.91 C86.08 61.33, 82.93 65.82, 70.07 66.55 M86.7 49.91 C86.75 61.39, 82.16 66.28, 70.07 66.55 M70.07 66.55 C50.63 67.45, 33.71 66.8, 16.64 66.55 M70.07 66.55 C51.61 65.29, 34.06 65.43, 16.64 66.55 M16.64 66.55 C5.21 65.66, -1.05 60.13, 0 49.91 M16.64 66.55 C5.26 65.69, -0.04 60.5, 0 49.91 M0 49.91 C-1.99 39.56, -0.25 25.82, 0 16.64 M0 49.91 C-0.25 38.39, -0.17 27.65, 0 16.64 M0 16.64 C-1.56 6.48, 3.64 -0.24, 16.64 0 M0 16.64 C2.26 6.28, 6.86 1.68, 16.64 0" stroke="#2b8a3e" stroke-width="1" fill="none"></path></g><g stroke-linecap="round" transform="translate(152.75937847472392 127.76278488790524) rotate(0 49.24041748046875 31.594009399414062)"><path d="M15.8 0 M15.8 0 C34.61 1.04, 55.88 1.97, 82.68 0 M15.8 0 C29.74 0.32, 44.16 -0.29, 82.68 0 M82.68 0 C92.56 -0.93, 97.99 4.98, 98.48 15.8 M82.68 0 C91.43 1.07, 96.29 4.99, 98.48 15.8 M98.48 15.8 C100.04 28.65, 98.14 40.5, 98.48 47.39 M98.48 15.8 C99.15 28.16, 98.42 39.96, 98.48 47.39 M98.48 47.39 C97.23 58.31, 91.66 61.77, 82.68 63.19 M98.48 47.39 C96.52 57.48, 92.59 63.55, 82.68 63.19 M82.68 63.19 C68.46 62.1, 50.08 61.1, 15.8 63.19 M82.68 63.19 C59.5 63.91, 37.83 63.09, 15.8 63.19 M15.8 63.19 C5.13 63.09, -0.2 58.07, 0 47.39 M15.8 63.19 C3.37 64.83, 2.14 56.06, 0 47.39 M0 47.39 C0.88 41.54, 1.08 34.71, 0 15.8 M0 47.39 C-1.04 40.12, 0.24 34.39, 0 15.8 M0 15.8 C-0.99 6.96, 6.85 1.81, 15.8 0 M0 15.8 C0.36 4.21, 6.08 -0.03, 15.8 0" stroke="#e67700" stroke-width="1" fill="none"></path></g><g stroke-linecap="round" transform="translate(282.0079136309739 130.364042212124) rotate(0 45.14154052734375 31.411529541015625)"><path d="M15.71 0 M15.71 0 C26.9 -2.33, 42.42 -1.69, 74.58 0 M15.71 0 C36.79 -1.33, 57.48 -0.7, 74.58 0 M74.58 0 C83.12 -1.68, 90.92 4.96, 90.28 15.71 M74.58 0 C83.91 1.95, 92.11 7.31, 90.28 15.71 M90.28 15.71 C90.11 25.46, 90.51 35.89, 90.28 47.12 M90.28 15.71 C90.3 25.08, 89.36 33.95, 90.28 47.12 M90.28 47.12 C89.96 57.46, 86.41 62.4, 74.58 62.82 M90.28 47.12 C91.52 55.61, 85.49 62.12, 74.58 62.82 M74.58 62.82 C63.09 62.51, 47.08 65.24, 15.71 62.82 M74.58 62.82 C51.61 62.67, 28.08 63.5, 15.71 62.82 M15.71 62.82 C6.51 62.94, 1.73 56.26, 0 47.12 M15.71 62.82 C6.95 63.54, 1.52 58.93, 0 47.12 M0 47.12 C-0.12 33.54, -0.19 22.67, 0 15.71 M0 47.12 C0.39 34.81, -1.16 23.36, 0 15.71 M0 15.71 C1.49 7.06, 5.31 -0.88, 15.71 0 M0 15.71 C0.33 5.37, 5.35 2.12, 15.71 0" stroke="#5f3dc4" stroke-width="1" fill="none"></path></g><g stroke-linecap="round" transform="translate(27.603616755973917 620.9742106691552) rotate(0 82.14010620117188 24.362579345703125)"><path d="M12.18 0 M12.18 0 C62.32 -0.63, 110.66 -0.7, 152.1 0 M12.18 0 C48.5 -0.43, 84.99 -1.98, 152.1 0 M152.1 0 C160.87 1.49, 166.1 4.13, 164.28 12.18 M152.1 0 C159.2 0.33, 164.42 4.17, 164.28 12.18 M164.28 12.18 C164.26 20.46, 164.16 32.39, 164.28 36.54 M164.28 12.18 C164.9 18.42, 164.87 23.83, 164.28 36.54 M164.28 36.54 C165.82 46.2, 158.41 47.99, 152.1 48.73 M164.28 36.54 C163.61 44.7, 158.61 49.84, 152.1 48.73 M152.1 48.73 C105.87 49.86, 61.82 49.57, 12.18 48.73 M152.1 48.73 C109.28 49.32, 67.78 49.98, 12.18 48.73 M12.18 48.73 C4.25 47.89, -1.12 45.42, 0 36.54 M12.18 48.73 C4.67 48.55, -1.91 43.25, 0 36.54 M0 36.54 C-0.96 28.82, 1.03 24.03, 0 12.18 M0 36.54 C0.46 29.22, -0.85 23.03, 0 12.18 M0 12.18 C1.35 2.76, 4.04 -1.44, 12.18 0 M0 12.18 C-0.16 5.72, 4.11 1, 12.18 0" stroke="#2b8a3e" stroke-width="1" fill="none"></path></g><g stroke-linecap="round" transform="translate(216.68131450988017 618.897733618374) rotate(0 72.51174926757812 25.105682373046875)"><path d="M12.55 0 M12.55 0 C60.05 -0.56, 105.76 1.42, 132.47 0 M12.55 0 C44.52 -0.41, 77.69 -0.61, 132.47 0 M132.47 0 C141.86 1.99, 146.26 5.43, 145.02 12.55 M132.47 0 C139.78 0.99, 146.44 5.44, 145.02 12.55 M145.02 12.55 C144.93 20.06, 145.01 27.22, 145.02 37.66 M145.02 12.55 C145.56 19.84, 145.18 27.71, 145.02 37.66 M145.02 37.66 C146.6 45.91, 142.78 51.16, 132.47 50.21 M145.02 37.66 C146.82 46.46, 138.94 48.19, 132.47 50.21 M132.47 50.21 C84.93 49.38, 40.63 50.92, 12.55 50.21 M132.47 50.21 C97.19 49.15, 59.46 50.12, 12.55 50.21 M12.55 50.21 C4.57 51.26, 0.35 47.7, 0 37.66 M12.55 50.21 C2.23 48.61, 1.49 48.03, 0 37.66 M0 37.66 C1.29 26.45, -1.26 15.65, 0 12.55 M0 37.66 C-0.86 30.52, -0.98 22.63, 0 12.55 M0 12.55 C0.01 3.52, 4.93 -1.42, 12.55 0 M0 12.55 C1.41 1.91, 3.86 -0.75, 12.55 0" stroke="#000000" stroke-width="1" fill="none"></path></g><g transform="translate(232.75229839659892 627.9989909425927) rotate(0 62.19994354248047 12.5)"><text x="0" y="0" font-family="Virgil, Segoe UI Emoji" font-size="20px" fill="#000000" text-anchor="start" style="white-space: pre;" direction="ltr" dominant-baseline="text-before-edge">Elapsed time</text></g><g transform="translate(46.65690044738017 634.513700415249) rotate(0 65.5499496459961 12.5)"><text x="0" y="0" font-family="Virgil, Segoe UI Emoji" font-size="20px" fill="#2b8a3e" text-anchor="start" style="white-space: pre;" direction="ltr" dominant-baseline="text-before-edge">Start / Stop</text></g><g stroke-linecap="round" transform="translate(29.439554255973917 219.26263230001462) rotate(0 60.31072998046875 26.13958740234375)"><path d="M13.07 0 M13.07 0 C40.75 1.34, 63.28 -2.02, 107.55 0 M13.07 0 C36.5 0.07, 61.27 0.99, 107.55 0 M107.55 0 C114.34 -1.38, 120.4 3.16, 120.62 13.07 M107.55 0 C117.44 0.96, 120.78 4.26, 120.62 13.07 M120.62 13.07 C120.57 23.63, 119.64 29.28, 120.62 39.21 M120.62 13.07 C121.73 20.5, 120.83 27.29, 120.62 39.21 M120.62 39.21 C118.99 46.07, 116.62 52.83, 107.55 52.28 M120.62 39.21 C121.29 47.86, 115.32 50.82, 107.55 52.28 M107.55 52.28 C80.31 50.15, 54.14 50.43, 13.07 52.28 M107.55 52.28 C88.47 53.13, 68.48 53.45, 13.07 52.28 M13.07 52.28 C5.36 53.56, -1.4 49.79, 0 39.21 M13.07 52.28 C3.27 51.89, -1.92 45.91, 0 39.21 M0 39.21 C2.06 27.18, 2.1 17.82, 0 13.07 M0 39.21 C-0.11 30.2, -0.85 21.2, 0 13.07 M0 13.07 C-0.98 4.45, 3.2 0.51, 13.07 0 M0 13.07 C-2.19 6, 2.69 1.83, 13.07 0" stroke="#c92a2a" stroke-width="1" fill="none"></path></g><g transform="translate(43.10068706847392 219.96017258321774) rotate(0 42.45995330810547 25)"><text x="0" y="0" font-family="Virgil, Segoe UI Emoji" font-size="20px" fill="#c92a2a" text-anchor="start" style="white-space: pre;" direction="ltr" dominant-baseline="text-before-edge">Complete</text><text x="0" y="25" font-family="Virgil, Segoe UI Emoji" font-size="20px" fill="#c92a2a" text-anchor="start" style="white-space: pre;" direction="ltr" dominant-baseline="text-before-edge">round</text></g></svg>